<svg id="logo_影像" data-name="logo 影像" xmlns="http://www.w3.org/2000/svg" viewBox="0 0 64.58 40.93"><defs><style>.cls-1{fill:#f29318;}</style></defs><path class="cls-1" d="M62.79,18.75a17.61,17.61,0,0,1-12.27-5.44c-1.85-1.91-3.56-4-5.36-5.91A16,16,0,0,0,38,2.56a19.56,19.56,0,0,0-6.85-.72,16.82,16.82,0,0,0-7.28,2.05,23.94,23.94,0,0,0-5.58,4.65c-1.82,1.91-3.6,3.87-5.54,5.66A16.93,16.93,0,0,1,2.59,18.65c-.69.06-1.38.09-2.06.13-.36,0-.51-.09-.52-.48C0,17,0,17.06,1.26,17a16,16,0,0,0,10.48-4.34c2-1.85,3.76-3.87,5.63-5.82a21.58,21.58,0,0,1,7.78-5.57A19.72,19.72,0,0,1,30.73.07a20.7,20.7,0,0,1,8.42,1A17.86,17.86,0,0,1,46.51,6.2c1.39,1.54,2.73,3.11,4.11,4.65a16.6,16.6,0,0,0,9,5.6,35.47,35.47,0,0,0,4.37.53c.51,0,.65.17.64.67C64.55,18.79,64.57,18.79,62.79,18.75Z"/><path class="cls-1" d="M32.48,40.93c-6.09.09-10.95-2.44-15-6.79-2-2.13-4-4.27-6.1-6.24A14.83,14.83,0,0,0,2.7,24C2,24,1.22,23.89.48,23.84c-.34,0-.46-.14-.47-.48C0,22,.05,22,1.43,22.06c5.65.33,10.1,2.93,13.84,7,1.8,2,3.65,3.94,5.6,5.76A15.53,15.53,0,0,0,30.38,39a17.77,17.77,0,0,0,9.88-1.6,20.34,20.34,0,0,0,6-5.15,49.35,49.35,0,0,1,5.81-6.11,17.52,17.52,0,0,1,9.14-3.82c1-.11,1.9-.14,2.85-.22.35,0,.46.12.47.46,0,1.2.05,1.24-1.07,1.33a22,22,0,0,0-5.62,1,17.25,17.25,0,0,0-7,4.82c-1.71,1.86-3.34,3.79-5.07,5.63a16.46,16.46,0,0,1-9.49,5.2C35.08,40.75,33.77,40.8,32.48,40.93Z"/><path class="cls-1" d="M43.73,21.07c0-.76,0-1.41,0-2.05,0-.15.19-.32.34-.41.46-.3.94-.57,1.52-.91-.23-.15-.39-.27-.56-.36-4.11-2-8.23-4.07-12.35-6.08a1,1,0,0,0-.74,0c-4.22,2-8.42,4.1-12.64,6.15-.13.07-.24.16-.45.3.58.32,1.11.58,1.6.9a1.06,1.06,0,0,1,.41.65,17.94,17.94,0,0,1,0,1.82l-6.63-3.37.59-.34,16.9-8.3a1.05,1.05,0,0,1,1-.05q8.46,4.18,16.94,8.33l.65.35Z"/><path class="cls-1" d="M28.4,24c0-2.18,0-4.36,0-6.54,0-.5.13-.66.64-.66q3.22,0,6.44,0c.46,0,.6.14.59.59,0,1.23,0,2.45,0,3.68,0,.43-.09.61-.57.6-1.34,0-1.34,0-1.34-1.33,0-.51,0-1,0-1.55s-.1-.59-.56-.57c-1,0-1.91,0-2.87,0-.37,0-.55.11-.55.52,0,3.51,0,7,0,10.51,0,.22.22.44.36.63s.19.13.29.19c1.45.83,1.45.84,2.95.05a.77.77,0,0,0,.34-.52c0-1.64,0-3.29,0-4.94,0-.35-.13-.53-.51-.5a4.69,4.69,0,0,1-.75,0c-.22,0-.59,0-.61-.14a3.17,3.17,0,0,1,0-1c0-.06.26-.13.4-.13h2.82c.31,0,.44.11.44.43,0,2.47,0,4.94,0,7.41a.68.68,0,0,1-.28.5c-1.06.64-2.14,1.27-3.22,1.88a.68.68,0,0,1-.56,0c-1-.58-2.07-1.17-3.07-1.8a1,1,0,0,1-.37-.74C28.38,28.33,28.4,26.15,28.4,24Z"/><path class="cls-1" d="M39.26,27.21c1.17-.22,1.24-.3,1.24-1.28V18.07c.5.31.93.54,1.32.82a.7.7,0,0,1,.19.49q0,4.11,0,8.22a.69.69,0,0,1-.24.52c-1.33.78-2.68,1.54-4.1,2.35V16.81a10.9,10.9,0,0,1,1.37.66c.15.09.21.42.21.64,0,2.79,0,5.59,0,8.38Z"/><path class="cls-1" d="M26.61,30.15c-1.32-.71-2.54-1.36-3.75-2-.13-.06-.2-.32-.21-.48,0-2.85,0-5.71,0-8.56a.64.64,0,0,1,.24-.51c1.2-.59,2.41-1.14,3.73-1.74,0,.59,0,1.1,0,1.6,0,.12-.19.26-.33.34a7.4,7.4,0,0,1-1,.46,1,1,0,0,0-.76,1.14c0,1.8,0,3.6,0,5.4,0,.39.09.69.47.82a2.39,2.39,0,0,1,1.63,3C26.62,29.74,26.63,29.87,26.61,30.15Z"/></svg>