<svg id="logo_影像" data-name="logo 影像" xmlns="http://www.w3.org/2000/svg" viewBox="0 0 342.51 40.69"><defs><style>.cls-1{fill:#040000;}.cls-2{fill:#f29318;}</style></defs><path class="cls-1" d="M261.55,4.41V38.76h-1.88V37.08H230.51v1.68h-1.84V4.41Zm-1.88,31V6.13H230.51V35.36Zm-2.12-18.67v1.44H232.71V16.69h11.36v-2.2h-6.88V8.37H253v6.12h-7.12v2.2Zm-21.64,3.47h18.28V32.68H235.91Zm1.68,11.08h14.92V21.6H237.59Zm1.28-18.19h12.36V9.77H238.87Zm1.8,10.59h8.68v5.6h-8.68Zm1.44,4.24h5.8V25h-5.8Z"/><path class="cls-1" d="M302.71,23V24.6h-35.2V23H284V20.13H270.15V18.6H284V15.88h-12.6V14.37H284V11.49H267.55V9.89H284V7.09H271.87V5.57H284v-3h1.92v3h11.68V9.89h5v1.6h-5v4.39H285.91V18.6h14.24v1.53H285.91V23Zm-30,3.88h25.12v12h-1.92V37.52H274.55v1.4h-1.88Zm1.88,1.56v3h21.32v-3ZM295.87,36V32.84H274.55V36Zm-10-26.11h9.8V7.09h-9.8Zm0,4.48h9.8V11.49h-9.8Z"/><path class="cls-1" d="M316.79,3.05c-.24.44-.56.92-.84,1.4,2.08,1.48,4.6,3.32,6,4.52l-1,1.44a71.84,71.84,0,0,0-5.8-4.6,31.33,31.33,0,0,1-7.36,7.2,10.8,10.8,0,0,0-1-1.6,26.64,26.64,0,0,0,8.48-8.92Zm.68,25.59a90.09,90.09,0,0,1,4.36,8.12l-1.48.8c-.4-.92-1-2.12-1.64-3.44-8.32,3.68-9.28,4.16-10,4.72a6.18,6.18,0,0,0-.76-1.76,2.19,2.19,0,0,0,1.4-2.2V14.69h11V27.6h-9.2v8L318,32.8c-.6-1.24-1.32-2.44-2-3.56Zm-6.32-12.35v3.84h7.4V16.29Zm7.4,9.67V21.72h-7.4V26Zm0-15.83v1.56h-6.64V10.13Zm24-2.84v6.08h-1.6V9H324v4.4h-1.56V7.29h9.8a29.58,29.58,0,0,0-1.72-4.08l1.56-.68A31.48,31.48,0,0,1,334,6.77l-1,.52ZM327,26.64h14V38.56h-1.76V36.8H327v2h-1.72V13.25h13.88v9.43H327Zm0-11.71V21h10.52V14.93Zm0,13.43V35h12.2V28.36Z"/><path class="cls-2" d="M0,22.13.73,22a3.4,3.4,0,0,1,.93-.18c1.33.08,2.68.13,4,.34a10.48,10.48,0,0,1,2.6.82,26.25,26.25,0,0,1,2.86,1.54c.52.3,1,.68,1.49,1a17.17,17.17,0,0,1,1.73,1.32c1.17,1.14,2.28,2.34,3.42,3.5s2.33,2.4,3.56,3.53c.9.83,1.89,1.56,2.86,2.32a5,5,0,0,0,.68.38c.41.22.82.42,1.21.66a5.27,5.27,0,0,0,1.87.52c.87.16,1.68.62,2.54.72,1.31.14,2.64.07,3.95.13a12.35,12.35,0,0,0,3.56-.8c.35-.08.7-.13,1-.19.07,0,.15,0,.21,0,.81-.42,1.65-.81,2.41-1.3a16.81,16.81,0,0,0,2.07-1.6c.78-.71,1.53-1.46,2.24-2.24s1.34-1.59,2-2.35c.91-1,1.87-1.95,2.81-2.92a13.91,13.91,0,0,1,3.5-2.69c.85-.46,1.64-1,2.51-1.43a8.35,8.35,0,0,1,1.69-.41c.07,0,.15,0,.21,0,1.82-1.08,3.84-.78,5.81-.83a4.76,4.76,0,0,1,.94.14v1.77c-1,.12-2,.2-3,.37-.76.13-1.5.38-2.26.56a3.84,3.84,0,0,1-.94.15,3.15,3.15,0,0,0-1.68.7c-.5.32-1.12.44-1.62.75a26.45,26.45,0,0,0-5.12,4.5c-1,1-1.85,2.11-2.83,3.12-1.17,1.2-2.35,2.39-3.62,3.48a15.46,15.46,0,0,1-2.29,1.38.85.85,0,0,0-.19.1c-.74.73-1.81.67-2.65,1.11a9.34,9.34,0,0,1-4.53.73c-1.67,0-3.34,0-5,0a5.25,5.25,0,0,1-2-.34c-.85-.38-1.76-.5-2.59-.86a23.91,23.91,0,0,1-2.7-1.52,26.88,26.88,0,0,1-5.52-4.74c-1.17-1.19-2.27-2.44-3.43-3.62A18,18,0,0,0,9.72,26.5a10.29,10.29,0,0,0-3-1.53c-1.81-.35-3.53-1.11-5.4-1.12A5.78,5.78,0,0,1,0,23.54Z"/><path class="cls-2" d="M0,17.15a9.28,9.28,0,0,1,.91-.22c.75-.12,1.52-.18,2.26-.33S4.6,16.2,5.32,16c.24-.06.51,0,.74-.08.53-.19,1-.42,1.55-.64a7.43,7.43,0,0,0,1-.43A23.84,23.84,0,0,0,11.33,13c1.3-1.12,2.5-2.37,3.72-3.58,1.56-1.53,3.05-3.13,4.66-4.61A19.7,19.7,0,0,1,23,2.33,9,9,0,0,1,26.43.86,14.82,14.82,0,0,0,28.15.24,7,7,0,0,1,29.78,0c2.16,0,4.31,0,6.47,0a5.61,5.61,0,0,1,2.82.62,6.23,6.23,0,0,0,1.52.45,1,1,0,0,1,.3.09c1.27.85,2.76,1.35,3.88,2.45.9.89,1.9,1.68,2.78,2.59,2,2.06,3.86,4.22,5.88,6.23a10.49,10.49,0,0,0,3.46,2.44c.41.17.79.45,1.2.62a6.8,6.8,0,0,0,1.25.42c.94.23,1.89.45,2.84.62.69.13,1.38.18,2.07.26l1.24.13v1.8a13.67,13.67,0,0,1-3.78,0,9.88,9.88,0,0,1-1.22-.11,15.29,15.29,0,0,0-2.36-.74c-1.25-.11-2.18-.89-3.25-1.34a14,14,0,0,1-2.65-1.82,4.88,4.88,0,0,1-.69-.59q-2.35-2.49-4.69-5c-.86-.93-1.68-1.9-2.59-2.78a16.71,16.71,0,0,0-2.11-1.63A21.3,21.3,0,0,0,39.68,3.3a8.63,8.63,0,0,0-1.63-.4,17.66,17.66,0,0,0-2.6-.72c-1.23-.14-2.49,0-3.74-.13s-2.47.59-3.7.86a6.64,6.64,0,0,0-1.69.42A18.06,18.06,0,0,0,21.39,6.7c-1.26,1.3-2.52,2.61-3.8,3.89a46.57,46.57,0,0,1-4.19,4,12.82,12.82,0,0,1-3.93,2.47,16.76,16.76,0,0,1-1.76.81c-.91.19-1.76.66-2.67.79a8.71,8.71,0,0,1-4.56-.08,1.27,1.27,0,0,0-.48,0Z"/><path d="M94.54,17.33c.27.44.48.75.66,1.07.4.74.28,1.14-.45,1.51L92.63,21c-.41.21-.53.6-.22.93a2.68,2.68,0,0,0,1,.74c1,.39,2.1.71,3.16,1,.27.09.55.12.82.21A.67.67,0,0,1,97.78,25a6.12,6.12,0,0,1-.54.79.9.9,0,0,1-1.19.35c-.71-.27-1.5-.33-2.18-.63a37.45,37.45,0,0,1-4.08-2,16.08,16.08,0,0,1-4.26-3.8,13.35,13.35,0,0,1-1.25-1.91,1.25,1.25,0,0,0-1.15-.63,9.76,9.76,0,0,0-1.61.11,1,1,0,0,0-.79,1.11c0,.89,0,1.78,0,2.66a10.81,10.81,0,0,0,0,1.14.77.77,0,0,0,.85.71,7.1,7.1,0,0,0,3-.68,1.79,1.79,0,0,1,.89-.21c.69.07.93.68.72,1.53a1.57,1.57,0,0,1-1.37,1.2c-1.53.32-3,.69-4.57,1-1,.18-2,.24-3,.35a1.48,1.48,0,0,0-.21,0c-1.12.2-1.69-.32-1.58-1.44a.88.88,0,0,1,.92-.85c.16,0,.33,0,.49,0,1.17-.16,1.35-.29,1.43-1.44a27.46,27.46,0,0,0,0-3.74c-.06-1.07-.35-1.49-1.51-1.33-1,.13-1.61-.37-1.62-1.23a1,1,0,0,1,1-1h1.3a.85.85,0,0,0,1-1c0-2.78,0-5.56,0-8.34a1.18,1.18,0,0,1,1.32-1.34c5.16,0,10.32,0,15.48,0A1.21,1.21,0,0,1,96.48,6a.92.92,0,0,1-1,.63H83c-.4,0-.8,0-1.2,0a.66.66,0,0,0-.66.65A.6.6,0,0,0,81.7,8a3.68,3.68,0,0,0,.58.07c4,0,8,0,12,0a3.33,3.33,0,0,1,.93.18.66.66,0,0,1,.49.88,1.54,1.54,0,0,1-.64.74,2.09,2.09,0,0,1-.94.14H83.47c-.56,0-1.13,0-1.69,0a.6.6,0,0,0-.62.61c0,.42.12.7.54.79a3.29,3.29,0,0,0,.68.1H94.5a1,1,0,0,1,1,.62.79.79,0,0,1-.43,1.14,4,4,0,0,1-1.14.19c-.48,0-1-.09-1.45-.09H82.46a1.68,1.68,0,0,0-.91.22c-.22.15-.5.52-.45.73s.41.47.67.65c.09.07.28,0,.43,0H96.92c1.11,0,1.6.79,1,1.74a1.59,1.59,0,0,1-1,.51,9.25,9.25,0,0,1-1.38-.07A8.12,8.12,0,0,0,94.54,17.33Zm-6.17-.07c-.76-.11-1.24.34-1,.9A3.37,3.37,0,0,0,89,19.85a1.16,1.16,0,0,0,.68.1,8.12,8.12,0,0,0,2.93-1.52,1,1,0,0,0,.25-.29c.36-.58.15-1-.55-1-.41,0-.82.09-1.22.1C90.2,17.27,89.28,17.26,88.37,17.26Z"/><path d="M121.38,5.54h3.37c.44,0,.75-.08.76-.65a1.06,1.06,0,0,1,.9-1.09c.86-.15,1.32,0,1.6.62a1.88,1.88,0,0,0,1.93,1.12h6.52c.78,0,1.29.38,1.3,1a1.18,1.18,0,0,1-1.28,1.09c-.56,0-1.11-.09-1.66-.1-1.58,0-3.16,0-4.73,0-.37,0-1,.11-1,.28a2.37,2.37,0,0,0,.17,1.33c.07.18.47.31.72.31,1.48,0,3,0,4.45,0a1.36,1.36,0,0,1,1.4,1.78c-.28,1.23,0,1.75,1.14,2.07a1,1,0,0,1,.81,1,.94.94,0,0,1-.79,1c-1.06.28-1.41,1.09-1.22,2.21.25,1.37-.25,1.82-1.41,1.86-.71,0-1.43-.09-2.15-.09-.25,0-.62.06-.72.23a.92.92,0,0,0,0,.79,2.75,2.75,0,0,0,.76,1,29.81,29.81,0,0,0,2.59,1.72c.67.39,1.41.63,2.1,1a.79.79,0,0,1,.39.47A1.53,1.53,0,0,1,135.6,26,9.71,9.71,0,0,1,132,24a9.85,9.85,0,0,1-2.43-2.56c-.18-.28-.31-.6-.5-.87s-.36-.51-.53-.5a.93.93,0,0,0-.62.47,8.49,8.49,0,0,1-2.18,2.75,21.38,21.38,0,0,1-2.81,1.91,10.53,10.53,0,0,1-2.2.88c-.59.19-1.75-1-1.64-1.57s.57-.63,1-.79l1.37-.53a10,10,0,0,0,3.3-2.2,2.66,2.66,0,0,0,.71-1.14c.13-.4-.22-.58-.61-.58-1.11,0-2.21,0-3.32,0-.87,0-1.16-.32-1.13-1.17,0-.56.27-.84,1-.87,1.13,0,2.26.09,3.39.07.56,0,1.2,0,1.52-.59.13-.24.22-.68.09-.85a1.43,1.43,0,0,0-.93-.57c-1.88-.05-3.77,0-5.65,0-.56,0-.82.53-.89,1.37a37,37,0,0,1-.45,3.81,19.67,19.67,0,0,1-1.32,4.56c-.35.78-.75.8-1.27.3-.93-.9-1.27-1.15-.45-2.81a12.54,12.54,0,0,0,.88-3.48,34.23,34.23,0,0,0,.45-6.63c0-1.88.07-3.75.1-5.62,0-.9.37-1.27,1.27-1.27Zm1.39,7.7h2.94a.94.94,0,0,0,1-.72.87.87,0,0,0-.57-1.07,5.44,5.44,0,0,0-1.27-.15c-1,0-2.08.09-3.13.08a1.57,1.57,0,0,1-1.07-.31,1.47,1.47,0,0,1-.19-1.07c.08-.46.52-.55.93-.55h4.13a1.18,1.18,0,0,0,1.26-1.32.7.7,0,0,0-.35-.5,2.15,2.15,0,0,0-.84-.13h-5.43c-.62,0-1,.25-1.06.87a26.24,26.24,0,0,0-.09,3.76c.06.78.18,1.19,1.32,1.12C121.14,13.21,122,13.24,122.77,13.24Zm8.28,2v.06h-1c-.71,0-1,.33-1,1A1,1,0,0,0,130,17.36c.64,0,1.28,0,1.91,0a2.57,2.57,0,0,0,.76-.19.78.78,0,0,0,.5-.85c0-.39-.05-.76-.47-.85S131.61,15.31,131.05,15.24Zm-.06-2h1.3a.85.85,0,0,0,.91-.67.84.84,0,0,0-.55-1.12,5.34,5.34,0,0,0-1.21-.15c-.31,0-.62,0-.93,0a5.45,5.45,0,0,0-.7,0,1,1,0,0,0-.83,1.08.85.85,0,0,0,.93.86Z"/><path d="M159.52,9.77c1,0,1.92,0,2.88,0,1.34.07,1.46-.55,1.54-1.48s.1-2.12.12-3.18a1.53,1.53,0,0,1,2.07-1.36A1.12,1.12,0,0,1,166.77,5c0,1.2-.07,2.4-.09,3.61,0,1,.23,1.21,1.18,1.21h7.88a1,1,0,0,1,1.15,1.11,1.23,1.23,0,0,1-1.16,1.39c-1.73,0-3.46,0-5.18,0-1.05,0-1.28.38-1,1.42a14.61,14.61,0,0,0,1.76,3.88A18.9,18.9,0,0,0,174,21.24,22.2,22.2,0,0,0,176.1,23a3.82,3.82,0,0,1,.63.57,1,1,0,0,1,0,1.34,4.15,4.15,0,0,1-.72.73,1.17,1.17,0,0,1-1.64-.1A23.42,23.42,0,0,1,170,20.7c-.55-.81-.88-1.76-1.39-2.59-.87-1.44-1.13-3.12-1.84-4.61-.11-.23-.37-.38-.56-.57-.14.2-.39.39-.41.61a11.09,11.09,0,0,1-1.18,3.55c-.46.94-1,1.83-1.56,2.74a18.53,18.53,0,0,1-3.4,3.93c-.71.67-1.47,1.3-2.25,1.91a1.15,1.15,0,0,1-1.71-.22c-.16-.19-.36-.36-.53-.54a.82.82,0,0,1,0-1.34,4.86,4.86,0,0,1,.66-.54,18.6,18.6,0,0,0,4.28-3.93,18.87,18.87,0,0,0,2.44-3.9,9.3,9.3,0,0,0,.53-1.77c.2-.75-.12-1.16-.9-1.16-1.9,0-3.8,0-5.7,0a2.3,2.3,0,0,1-1-.23,1.25,1.25,0,0,1-.56-1.37,1.14,1.14,0,0,1,1.17-.88Z"/><path d="M212.61,4.24h1.95a.79.79,0,0,1,.89.84c0,1.71,0,3.41,0,5.11,0,.89-.06,1.79-.1,2.69a1.13,1.13,0,0,0,.63,1,1.31,1.31,0,0,1,.6,1.43,25,25,0,0,0,0,2.87,1.19,1.19,0,0,1-1,1.13,1,1,0,0,1-1.16-1.09c0-.51,0-1,0-1.52s-.28-.85-.85-.85l-14.75-.11a5.29,5.29,0,0,0-1.11.15c-.61.12-.84.65-.72,1.36a1.74,1.74,0,0,1-.39,1.73,1.13,1.13,0,0,1-1.21.15,1,1,0,0,1-.62-1c0-1.13,0-2.27,0-3.41a1.14,1.14,0,0,1,.49-.77,1.38,1.38,0,0,0,.7-1.32c-.08-1.5-.08-3-.13-4.48,0-.81-.08-1.61-.1-2.42a1.14,1.14,0,0,1,1-1.22q2-.32,3.9-.54c.56-.06,1.34.91,1.2,1.46s-.7.5-1.13.57a16,16,0,0,0-1.73.25,1.12,1.12,0,0,0-.68.68c-.05.46.4.57.78.59s1,0,1.52,0,1,.36,1,.84-.39.77-1,.79-1.1,0-1.65.09c-.36,0-.66.27-.56.64a.91.91,0,0,0,.59.54,9.4,9.4,0,0,0,1.19,0,2.66,2.66,0,0,1,1.07.22.72.72,0,0,1,.29,1,1.42,1.42,0,0,1-1.39.56,2.77,2.77,0,0,0-1.25.06,1.11,1.11,0,0,0-.61.71c-.08.38.26.65.62.75a3.87,3.87,0,0,0,.95.12c.76,0,1.51-.06,2.26-.11.41,0,.82-.11,1.23-.09s1,.17,1.53.18c.75,0,1.5-.07,2.26-.09s1.34,0,2,0c.22,0,.44,0,.66,0,.66,0,1.33.08,2,.08a2.46,2.46,0,0,0,1-.15,1,1,0,0,0,.44-.63.54.54,0,0,0-.41-.75c-.57-.1-1.17-.12-1.75-.18a1.16,1.16,0,0,1-.51-.11c-.22-.19-.55-.46-.53-.66a1.14,1.14,0,0,1,.57-.74,3.68,3.68,0,0,1,1.17-.15c.27,0,.54,0,.81,0a.67.67,0,0,0,.67-.74c0-.48-.31-.62-.68-.66s-.87,0-1.3,0a2.33,2.33,0,0,1-.86-.22c-.18-.1-.41-.37-.38-.51s.24-.6.43-.65a8.28,8.28,0,0,1,1.72-.16c.72,0,1.16-.23,1.07-.92-.05-.39-.4-.6-1-.56s-1,.11-1.49.09a1.06,1.06,0,0,1-1-.52.92.92,0,0,1,.89-1.41C211.23,4.23,211.92,4.24,212.61,4.24Z"/><path class="cls-2" d="M44.84,20.93a1.13,1.13,0,0,1-1.2-.66A1.07,1.07,0,0,1,43.92,19a8,8,0,0,0,.91-1.11c.34-.48.21-.74-.33-1-1.07-.44-2.13-.9-3.17-1.4s-1.83-1-2.78-1.47-2-.83-3-1.28a16.62,16.62,0,0,0-1.71-.91,3.42,3.42,0,0,0-3.08.55c-.08.05-.13.13-.21.17-1,.45-2.05.9-3.07,1.37a7.3,7.3,0,0,0-.77.44c-.08,0-.14.12-.22.15-1.07.48-2.15,1-3.21,1.45-.21.09-.39.24-.59.34-.43.19-.87.39-1.31.54-.74.26-.87.68-.3,1.2a2.24,2.24,0,0,1,.74,1.86.86.86,0,0,1-1.15.9,6.33,6.33,0,0,1-1-.46c-.3-.14-.6-.3-.89-.45s-.8-.45-1.21-.65-.72-.31-1.06-.49a9.06,9.06,0,0,1-1.33-.84c-.45-.38-.31-.87.24-1.08a19.45,19.45,0,0,0,3.65-1.75,7,7,0,0,1,.94-.34c.92-.43,1.82-.89,2.73-1.33l1.08-.54,2-1,1.2-.63c.24-.12.49-.2.73-.32.39-.19.77-.41,1.16-.6s.75-.31,1.11-.48a9,9,0,0,0,1-.52,4,4,0,0,1,2.39-.52c.91,0,1.5.65,2.24,1,1.25.57,2.45,1.22,3.68,1.8,1,.48,2,.9,3,1.39s1.93,1,2.9,1.48l.76.37,1.24.57,1,.43c.78.36,1.57.71,2.33,1.12.44.23.48.62.1,1a6.8,6.8,0,0,1-1.18.8c-.48.29-1,.53-1.48.79l-.38.2c-.54.27-1.08.57-1.64.82A9.28,9.28,0,0,1,44.84,20.93Z"/><path class="cls-2" d="M31.18,24.07v4.44a1.27,1.27,0,0,0,1,1.33,2,2,0,0,0,1.74-.19,1.14,1.14,0,0,0,.53-1.08c-.05-.93-.13-1.87-.1-2.8a1.34,1.34,0,0,0-.88-1.42,1.32,1.32,0,0,1-.61-.41,1.13,1.13,0,0,1-.2-.86,1,1,0,0,1,.75-.49,24.83,24.83,0,0,1,2.58.1,1.07,1.07,0,0,1,.84.95c0,2.22,0,4.44,0,6.67A1.35,1.35,0,0,1,36,31.55c-.64.33-1.24.74-1.87,1.08a3,3,0,0,1-3.61-.53,2.69,2.69,0,0,0-.79-.41,1.5,1.5,0,0,1-1.08-1.47c0-2.65-.1-5.3-.11-7.95,0-1.53.06-3.05.11-4.58a1.12,1.12,0,0,1,1.24-1.2c.85,0,1.69-.1,2.53-.09,1.17,0,2.34.05,3.51.1A1.39,1.39,0,0,1,37,17.75c0,1,0,2-.11,3.06A1.63,1.63,0,0,1,35.55,22a1.24,1.24,0,0,1-1.11-1.24c0-.3-.1-.6-.1-.9a1.42,1.42,0,0,0-1.72-1.43,5.33,5.33,0,0,0-.76.2.93.93,0,0,0-.68,1C31.2,21.14,31.18,22.6,31.18,24.07Z"/><path d="M208.83,20.35a2.17,2.17,0,0,0,1.56.38c1.22,0,2.45-.11,3.67-.1,1.07,0,2.13.08,3.22.13v1.71a65.13,65.13,0,0,1-8.49.19c-1.38,0-1.57.15-1.82,1.57a2,2,0,0,1-1.07,1.62,5.12,5.12,0,0,1-1.51.29c-.7,0-1.41,0-2.11,0a1.4,1.4,0,0,1-1.38-1.24c0-.39.28-.69.81-.71s1.23,0,1.85,0,1-.3,1-.81-.38-.82-1.05-.81l-5.84.1c-.74,0-1.48,0-2.23,0s-1.21-.41-1.2-1.05.45-1,1.19-1q4,0,8,0a1.72,1.72,0,0,0,1.34-.56c.21-.21.48-.37.68-.59s.21-.59-.2-.69a6.77,6.77,0,0,0-1.41-.21c-1.34,0-2.68,0-4,0-.61,0-1.07-.31-1.09-.8s.36-.77.84-.87a2.07,2.07,0,0,1,.41-.07h11.3a.91.91,0,0,1,1,.68,1,1,0,0,1-.6,1.28c-.82.4-1.65.79-2.47,1.2A1.89,1.89,0,0,0,208.83,20.35Z"/><path class="cls-2" d="M39.77,26.64a4.08,4.08,0,0,0,.87-.36.66.66,0,0,0,.2-.52c0-2.36-.06-4.72-.09-7.08,0-.2,0-.39,0-.58,1.27-.39,2.12.53,2.15,1.74.06,2.44,0,4.88,0,7.32a1.58,1.58,0,0,1-.73,1.36c-.67.41-1.37.77-2.07,1.14a10.27,10.27,0,0,1-1.07.48.89.89,0,0,1-1.33-.92c0-1.94,0-3.87,0-5.8,0-1.68-.13-3.37-.2-5.05a2,2,0,0,1,0-.81,1.42,1.42,0,0,1,2-.56.88.88,0,0,1,.22.61q0,4.17,0,8.35Z"/><path class="cls-2" d="M26.77,16.82c.73-.12,1,.37,1.14.87a1,1,0,0,1-.73,1.11,2.13,2.13,0,0,0-1.54,2.42c0,1.14,0,2.28,0,3.41A2.08,2.08,0,0,0,27,26.94c.89.29,1.1,2,.63,2.65s-1,.27-1.47.17a4.31,4.31,0,0,1-1-.54,9.89,9.89,0,0,0-1.13-.56,1.73,1.73,0,0,1-1.23-1.73V19.68a1.76,1.76,0,0,1,1.49-1.89,6.48,6.48,0,0,0,.8-.38l1.6-.73Z"/><path d="M207.84,8.49l.81.49c.5.33.52.57.12,1-.75.83-.79,1-.29,2a.66.66,0,0,1-.19.89.78.78,0,0,1-1,.17c-.27-.16-.52-.36-.78-.55a.92.92,0,0,0-1.18,0,8,8,0,0,1-1.05.61,1.1,1.1,0,0,1-1.5-.56.69.69,0,0,1,.29-1c.14-.1.32-.14.47-.23.61-.37.63-.65.31-1.29a2.69,2.69,0,0,1-.1-1,3.32,3.32,0,0,1,.94,0,3.87,3.87,0,0,1,1,.53A.93.93,0,0,0,207,9.29c.77-.76.69-.68-.06-1.38a1.47,1.47,0,0,0-2.18-.11,2.87,2.87,0,0,1-1.55.42,1,1,0,0,1-.82-.58c0-.31.26-.68.46-1,.06-.1.25-.12.37-.19.67-.42.79-.69.44-1.29-.19-.32-.45-.79,0-1a2.18,2.18,0,0,1,1.2-.08,1.52,1.52,0,0,1,.6.34c.64.45.87.44,1.49,0a1.44,1.44,0,0,1,.65-.33.87.87,0,0,1,.68.15,1.05,1.05,0,0,1,.18.71,1.31,1.31,0,0,1-.23.58,1.25,1.25,0,0,0,0,1.41C208.62,7.51,208.1,8,207.84,8.49Z"/><path d="M186.56,35.56V32.83c0-.53,0-1.06,0-1.58,0-.81.55-1.15,1.37-1,.55.08,1.12,0,1.67.05a2.45,2.45,0,0,1,2.07.87,1.76,1.76,0,0,1-.15,2.24l-.23.23c-.53.54-.51.75,0,1.34a3.54,3.54,0,0,1,.68,1c.11.24.13.74,0,.81a1.06,1.06,0,0,1-.92,0,3.28,3.28,0,0,1-.81-.81A10.43,10.43,0,0,0,189,34.64c-.51-.38-1-.06-1,.59,0,.34-.07.67-.11,1a.66.66,0,0,1-.65.65c-.43,0-.55-.28-.65-.59s-.1-.48-.15-.72Zm3.84-3.38c-.1-.13-.21-.44-.38-.48a3.24,3.24,0,0,0-1.38-.09,1,1,0,0,0-.62.67c0,.19.27.58.5.66a4.26,4.26,0,0,0,1.08.05C190.11,33,190.29,32.72,190.4,32.18Z"/><path d="M98.55,33.61V31.44a1,1,0,0,1,.54-1,.86.86,0,0,1,1.12.35c.33.47.64.94.94,1.42.1.15.14.33.23.47a.74.74,0,0,0,1,.36c.2-.11.25-.56.3-.87a7.67,7.67,0,0,1,.08-1.19.83.83,0,0,1,.61-.46.72.72,0,0,1,.58.42,15,15,0,0,1,.12,2c0,.84,0,1.69,0,2.52,0,.48-.22,1.25-.57,1.39a1.11,1.11,0,0,1-1.31-.55c-.34-.53-.63-1.11-1-1.62-.17-.25-.49-.57-.73-.56-.42,0-.5.43-.48.82s0,.65,0,1-.38.89-.72.83a.79.79,0,0,1-.69-.82C98.54,35.16,98.55,34.39,98.55,33.61Z"/><path d="M161.9,30.27a2.64,2.64,0,0,1,.66.51c.45.61.84,1.26,1.26,1.91.18.28.34.66.77.45s.45-.6.41-1a3.17,3.17,0,0,1,.1-1.15.72.72,0,0,1,.51-.44.77.77,0,0,1,.59.37,2.11,2.11,0,0,1,.25,1c0,1.26,0,2.53,0,3.8a1.12,1.12,0,0,1-.64,1.18,1.07,1.07,0,0,1-1.25-.51,18,18,0,0,1-1-1.59.8.8,0,0,0-.88-.52c-.43.08-.4.48-.39.83s0,.65,0,1a.76.76,0,0,1-.76.75.62.62,0,0,1-.64-.7c0-1.59,0-3.19,0-4.78C161,30.64,161.29,30.38,161.9,30.27Z"/><path d="M135.5,33.79c-.49.46-.3,1-.33,1.44s0,.69,0,1-.29.67-.62.59-.64-.42-.64-.65c0-1.71,0-3.41.09-5.12,0-.28.38-.77.57-.76a1.5,1.5,0,0,1,1,.51,19.21,19.21,0,0,1,1.18,2,1.22,1.22,0,0,0,.14.28c.18.17.39.32.58.48a2.6,2.6,0,0,0,.38-.74,11.06,11.06,0,0,0,0-1.29,1.63,1.63,0,0,1,.12-.67c.1-.19.32-.46.47-.44a1,1,0,0,1,.67.39,1.3,1.3,0,0,1,.14.72c0,1.4,0,2.81,0,4.22,0,.49-.11.94-.63,1.12a1.19,1.19,0,0,1-1.26-.6c-.45-.65-.9-1.3-1.37-1.94A5.41,5.41,0,0,0,135.5,33.79Z"/><path d="M120.82,30.12a3.42,3.42,0,0,1,2.55.89.79.79,0,0,1,.1,1.11c-.31.4-.64.13-1,0a1.18,1.18,0,0,1-.32-.19,1.69,1.69,0,0,0-2.27,0,2.28,2.28,0,0,0-.6,2.27,1.91,1.91,0,0,0,2.53,1.41.81.81,0,0,0,.45-.46c0-.11-.19-.32-.33-.45s-.36-.25-.49-.41-.21-.38-.15-.48a1,1,0,0,1,.53-.42,5.2,5.2,0,0,1,1-.12,1.28,1.28,0,0,1,1.14.82A3.2,3.2,0,0,1,123.9,36c-.21.51-.7.59-1.15.75a3.87,3.87,0,0,1-3.56-.3A3.6,3.6,0,0,1,117.8,33a3,3,0,0,1,1.45-2.3A12.68,12.68,0,0,1,120.82,30.12Z"/><path d="M141.36,33.61a3.21,3.21,0,0,1,3.77-3.42,5.66,5.66,0,0,1,1.68.7.42.42,0,0,1,.21.3c0,.35.06.81-.13,1s-.66.11-.95-.15a1.86,1.86,0,0,0-2.28-.26,1.34,1.34,0,0,0-.76,1.25,5.57,5.57,0,0,0,.26,1.82,1.48,1.48,0,0,0,.82.68,1.62,1.62,0,0,0,1.57,0c.37-.24.41-.45.13-.75a4.89,4.89,0,0,0-.46-.45c-.4-.34-.37-.8.1-1a2.43,2.43,0,0,1,1.94.18,1.61,1.61,0,0,1,.48,1.7c-.21,1-.94,1.35-1.84,1.57a3.5,3.5,0,0,1-3.68-.86A3.17,3.17,0,0,1,141.36,33.61Z"/><path d="M106.05,33.59a3,3,0,0,1,1.54-2.93,3.44,3.44,0,0,1,3.92.16,1,1,0,0,1,.35,1.19c-.18.44-.51.38-.84.23a4.75,4.75,0,0,1-.63-.4,1.77,1.77,0,0,0-2.74,1,2.29,2.29,0,0,0,.93,2.72,2,2,0,0,0,1.85-.07c.36-.27.35-.54,0-.78-.18-.12-.37-.22-.55-.33-.37-.22-.31-.51-.07-.75a1.73,1.73,0,0,1,2.53.56A2,2,0,0,1,111,36.78a4.5,4.5,0,0,1-3.07,0A3.32,3.32,0,0,1,106.05,33.59Z"/><path d="M196.44,30.09c.92.2,1.74.23,2.26,1a.69.69,0,0,1,0,1c-.33.31-.66.22-1-.05a3.12,3.12,0,0,0-.86-.5.68.68,0,0,0-.92.51c-.09.4.13.63.52.69l.84.09c.18,0,.41,0,.52.08a7.17,7.17,0,0,1,1.49,1.47,1.91,1.91,0,0,1-1.13,2.47,3.46,3.46,0,0,1-3-.07,3.1,3.1,0,0,1-1-1.12.61.61,0,0,1,.13-.6,1.28,1.28,0,0,1,.84-.06,2.38,2.38,0,0,1,.78.54,1.16,1.16,0,0,0,1.55.06c.13-.12.28-.41.22-.5a2,2,0,0,0-.71-.74c-.63-.32-1.34-.52-2-.84a1.64,1.64,0,0,1,0-2.78A9.63,9.63,0,0,1,196.44,30.09Z"/><path d="M90.47,36.28a3.2,3.2,0,0,1,.09-.48c.62-1.53,1.24-3.06,1.88-4.58A1.72,1.72,0,0,1,93,30.5c.6-.4,1-.32,1.39.31s.72,1.52,1,2.29c.39.93.74,1.87,1.15,2.79a.67.67,0,0,1-.26.93.69.69,0,0,1-1-.27c-.52-1.2-1.53-1-2.48-.95-.22,0-.45.24-.64.41s-.4.53-.67.69a1.05,1.05,0,0,1-.78.07C90.63,36.71,90.55,36.41,90.47,36.28Zm3.79-2.76c-.23-.27-.41-.63-.54-.62-.43.06-.48.44-.5.82s.16.56.39.49S94,33.81,94.26,33.52Z"/><path d="M83.23,33.65V31.48c0-.11,0-.21,0-.32,0-.42.39-.82.73-.78s.62.38.68.78a9.12,9.12,0,0,0,.12,1.05c0,.19.26.45.42.47a4.14,4.14,0,0,0,1.53,0c.61-.17.42-.82.54-1.28,0-.22,0-.48.12-.66a.73.73,0,0,1,.53-.33c.18,0,.5.18.52.32a13.17,13.17,0,0,1,.2,1.88c0,.53,0,1.07,0,1.6,0,.76-.06,1.52-.17,2.27,0,.16-.39.39-.59.38a.79.79,0,0,1-.56-.46,4.06,4.06,0,0,1-.15-1.21c0-.65-.29-1.06-.76-1.12-1-.12-1.48.14-1.64.89a4.41,4.41,0,0,0-.1.89c0,.63-.28,1-.7,1s-.72-.4-.72-1Z"/><path d="M179.39,33.68c0-.73,0-1.45,0-2.17,0-.94.47-1.31,1.42-1.26.78.05,1.56,0,2.34,0h.37c.39.05.69.28.62.65a.87.87,0,0,1-.62.51c-.63.08-1.27,0-1.9.05A1,1,0,0,0,181,32c-.07.16.11.48.25.68s.28.1.44.11a15.08,15.08,0,0,1,1.65.13c.24,0,.59.32.61.52s-.29.53-.66.55c-.57,0-1.15.06-1.72.1a.8.8,0,0,0-.73.84.69.69,0,0,0,.66.77,13.83,13.83,0,0,0,1.58,0c.28,0,.56,0,.84.06a.48.48,0,0,1,.48.63c-.08.23-.38.55-.59.56-1.14.06-2.28,0-3.42,0a1.06,1.06,0,0,1-1-1.08C179.38,35.16,179.39,34.42,179.39,33.68Z"/><path d="M130.06,33c0-.54,0-1.09,0-1.63s.44-1,.8-1a1,1,0,0,1,.81.94c0,.87,0,1.75-.09,2.63a6.05,6.05,0,0,1-.16,1.48,2.5,2.5,0,0,1-2.9,1.66,2.53,2.53,0,0,1-2.13-1.46,3.34,3.34,0,0,1-.23-1c-.07-.95-.1-1.9-.11-2.85a1.72,1.72,0,0,1,.17-.88c.15-.23.48-.53.7-.51a.84.84,0,0,1,.75.89c0,.85,0,1.7,0,2.55a6.29,6.29,0,0,0,.11,1c.14.69.59.95,1.47.88a1.07,1.07,0,0,0,.81-1.1C130.07,34.07,130.06,33.54,130.06,33Z"/><path d="M158.79,33c0,.77-.06,1.54-.17,2.3a1.84,1.84,0,0,1-1.24,1.49,3.72,3.72,0,0,1-2.12.24,2.29,2.29,0,0,1-1.95-2.47c0-.91-.09-1.82-.09-2.73a2.93,2.93,0,0,1,.21-.92c.11-.33.38-.63.71-.49a1.17,1.17,0,0,1,.56.7,4.37,4.37,0,0,1,0,1c0,.91,0,1.83.11,2.74,0,.53.6.84,1.3.81a1.21,1.21,0,0,0,1.08-1.18c0-1,0-1.91,0-2.87a2.19,2.19,0,0,1,.09-.57c.11-.4.34-.75.81-.68s.6.46.61.87c0,.57,0,1.15,0,1.73Z"/><path d="M75.3,33.65a3.24,3.24,0,0,1,3.31-3.49,2.37,2.37,0,0,1,2.11,1.31.8.8,0,0,1-.14.69,1,1,0,0,1-.72.09,1.89,1.89,0,0,1-.63-.39,1.41,1.41,0,0,0-2.2.65,2.77,2.77,0,0,0,.1,2.46,1.4,1.4,0,0,0,2.26.28,1.61,1.61,0,0,1,.76-.51.84.84,0,0,1,.74.26,1,1,0,0,1-.1.86,3,3,0,0,1-4.55.31A3.26,3.26,0,0,1,75.3,33.65Z"/><path d="M174.64,36.87c-.61.11-.84-.24-1-.73-.54-1.46-1.1-2.9-1.67-4.35-.28-.69-.22-1.22.19-1.42s1,.16,1.21.78.44,1.37.73,2c.11.26.45.43.69.64a2.53,2.53,0,0,0,.54-.66c.21-.52.3-1.09.5-1.61a2.39,2.39,0,0,1,.59-.92.92.92,0,0,1,.8-.21c.2.1.26.5.33.78a.89.89,0,0,1-.11.46c-.32.87-.63,1.75-1,2.62-.24.63-.51,1.24-.76,1.86S175.23,37,174.64,36.87Z"/><path d="M213.88,37c-.2-.21-.48-.38-.55-.62a3,3,0,0,1,0-1,3.13,3.13,0,0,0-.56-2,21.43,21.43,0,0,1-1.28-2.23.7.7,0,0,1,.12-.64.66.66,0,0,1,.65-.05,5.3,5.3,0,0,1,1.06,1.21c.49.83.76.87,1.35.1a10.68,10.68,0,0,1,1.18-1.33.68.68,0,0,1,.66,0,.65.65,0,0,1,.11.6,7.7,7.7,0,0,1-.74,1.39,5.08,5.08,0,0,0-1.16,3.35,2.16,2.16,0,0,1-.33,1C214.3,36.83,214.12,36.86,213.88,37Z"/><path d="M206.33,34.17c0-.58,0-1.16,0-1.73a.81.81,0,0,0-.86-.87c-.53,0-.85-.3-.84-.72a.82.82,0,0,1,.93-.69c1,0,2,.05,3,.12a1.26,1.26,0,0,1,.74.33c.25.26.05.7-.32.85-1.1.44-1.14.5-1.14,1.69,0,.88,0,1.77,0,2.65a1.1,1.1,0,0,1-.14.66,1.06,1.06,0,0,1-.68.39.73.73,0,0,1-.56-.44c-.11-.74-.13-1.49-.19-2.24Z"/><path d="M202.75,33.71c0,.79,0,1.59,0,2.38a.68.68,0,0,1-1.28.4,5,5,0,0,1-.17-1.34c0-1,0-1.94,0-2.91a7.82,7.82,0,0,1,.13-1.45.7.7,0,0,1,.53-.39,1,1,0,0,1,.64.37,1.3,1.3,0,0,1,.14.72C202.76,32.23,202.75,33,202.75,33.71Z"/><path d="M170,33.24c.05.78.14,1.57.12,2.35a2,2,0,0,1-.37,1.07.57.57,0,0,1-1-.12,2.79,2.79,0,0,1-.21-1c0-1.21,0-2.42,0-3.64a4.89,4.89,0,0,1,.18-1.07c.07-.27.24-.54.57-.41s.56.3.59.49a19.58,19.58,0,0,1,.13,2c0,.11,0,.22,0,.32Z"/></svg>